<svg width="106" height="76" viewBox="0 0 106 76" fill="none" xmlns="http://www.w3.org/2000/svg">
<path d="M7.68744 53.008H5.23944V64H2.47944V53.008H0.919437V50.776H2.47944V49.84C2.47944 48.32 2.87944 47.216 3.67944 46.528C4.49544 45.824 5.76744 45.472 7.49544 45.472V47.752C6.66344 47.752 6.07944 47.912 5.74344 48.232C5.40744 48.536 5.23944 49.072 5.23944 49.84V50.776H7.68744V53.008ZM11.9842 49.024C11.4882 49.024 11.0722 48.856 10.7362 48.52C10.4002 48.184 10.2322 47.768 10.2322 47.272C10.2322 46.776 10.4002 46.36 10.7362 46.024C11.0722 45.688 11.4882 45.52 11.9842 45.52C12.4642 45.52 12.8722 45.688 13.2082 46.024C13.5442 46.36 13.7122 46.776 13.7122 47.272C13.7122 47.768 13.5442 48.184 13.2082 48.52C12.8722 48.856 12.4642 49.024 11.9842 49.024ZM13.3282 50.776V64H10.5922V50.776H13.3282ZM20.1363 52.696C20.5363 52.024 21.0643 51.504 21.7203 51.136C22.3923 50.752 23.1843 50.56 24.0963 50.56V53.392H23.4003C22.3283 53.392 21.5123 53.664 20.9523 54.208C20.4083 54.752 20.1363 55.696 20.1363 57.04V64H17.4003V50.776H20.1363V52.696ZM39.2113 57.064C39.2113 57.56 39.1793 58.008 39.1153 58.408H29.0113C29.0913 59.464 29.4833 60.312 30.1873 60.952C30.8913 61.592 31.7553 61.912 32.7793 61.912C34.2513 61.912 35.2913 61.296 35.8993 60.064H38.8513C38.4513 61.28 37.7233 62.28 36.6673 63.064C35.6273 63.832 34.3313 64.216 32.7793 64.216C31.5153 64.216 30.3793 63.936 29.3713 63.376C28.3793 62.8 27.5953 62 27.0193 60.976C26.4593 59.936 26.1793 58.736 26.1793 57.376C26.1793 56.016 26.4513 54.824 26.9953 53.8C27.5553 52.76 28.3313 51.96 29.3233 51.4C30.3313 50.84 31.4833 50.56 32.7793 50.56C34.0273 50.56 35.1393 50.832 36.1153 51.376C37.0913 51.92 37.8513 52.688 38.3953 53.68C38.9393 54.656 39.2113 55.784 39.2113 57.064ZM36.3553 56.2C36.3393 55.192 35.9793 54.384 35.2753 53.776C34.5713 53.168 33.6993 52.864 32.6593 52.864C31.7153 52.864 30.9073 53.168 30.2353 53.776C29.5633 54.368 29.1633 55.176 29.0353 56.2H36.3553ZM61.2957 50.608L57.6717 64H53.1357L51.0237 55.312L48.8397 64H44.3277L40.6797 50.608H44.7837L46.6797 60.184L48.9357 50.608H53.2797L55.5597 60.136L57.4317 50.608H61.2957ZM62.5248 57.28C62.5248 55.904 62.7808 54.696 63.2928 53.656C63.8208 52.616 64.5328 51.816 65.4288 51.256C66.3248 50.696 67.3248 50.416 68.4288 50.416C69.3728 50.416 70.1968 50.608 70.9008 50.992C71.6208 51.376 72.1728 51.88 72.5568 52.504V50.608H76.6608V64H72.5568V62.104C72.1568 62.728 71.5968 63.232 70.8768 63.616C70.1728 64 69.3488 64.192 68.4048 64.192C67.3168 64.192 66.3248 63.912 65.4288 63.352C64.5328 62.776 63.8208 61.968 63.2928 60.928C62.7808 59.872 62.5248 58.656 62.5248 57.28ZM72.5568 57.304C72.5568 56.28 72.2688 55.472 71.6928 54.88C71.1328 54.288 70.4448 53.992 69.6288 53.992C68.8128 53.992 68.1168 54.288 67.5408 54.88C66.9808 55.456 66.7008 56.256 66.7008 57.28C66.7008 58.304 66.9808 59.12 67.5408 59.728C68.1168 60.32 68.8128 60.616 69.6288 60.616C70.4448 60.616 71.1328 60.32 71.6928 59.728C72.2688 59.136 72.5568 58.328 72.5568 57.304ZM84.2139 52.84C84.6939 52.104 85.2939 51.528 86.0139 51.112C86.7339 50.68 87.5339 50.464 88.4139 50.464V54.808H87.2859C86.2619 54.808 85.4939 55.032 84.9819 55.48C84.4699 55.912 84.2139 56.68 84.2139 57.784V64H80.1099V50.608H84.2139V52.84ZM90.0395 57.28C90.0395 55.904 90.2955 54.696 90.8075 53.656C91.3355 52.616 92.0475 51.816 92.9435 51.256C93.8395 50.696 94.8395 50.416 95.9435 50.416C96.8235 50.416 97.6235 50.6 98.3435 50.968C99.0795 51.336 99.6555 51.832 100.072 52.456V46.24H104.176V64H100.072V62.08C99.6875 62.72 99.1355 63.232 98.4155 63.616C97.7115 64 96.8875 64.192 95.9435 64.192C94.8395 64.192 93.8395 63.912 92.9435 63.352C92.0475 62.776 91.3355 61.968 90.8075 60.928C90.2955 59.872 90.0395 58.656 90.0395 57.28ZM100.072 57.304C100.072 56.28 99.7835 55.472 99.2075 54.88C98.6475 54.288 97.9595 53.992 97.1435 53.992C96.3275 53.992 95.6315 54.288 95.0555 54.88C94.4955 55.456 94.2155 56.256 94.2155 57.28C94.2155 58.304 94.4955 59.12 95.0555 59.728C95.6315 60.32 96.3275 60.616 97.1435 60.616C97.9595 60.616 98.6475 60.32 99.2075 59.728C99.7835 59.136 100.072 58.328 100.072 57.304Z" fill="white"/>
<path fill-rule="evenodd" clip-rule="evenodd" d="M57.7049 0.0643985C57.3757 0.193701 55.3466 1.6739 54.6308 2.30695C52.5687 4.13074 50.7439 6.8275 49.9104 9.28294C48.8086 12.529 48.8772 16.5339 50.0967 20.14C50.5699 21.5393 50.5969 21.903 50.2533 22.2478C49.7277 22.7756 49.0586 22.4414 47.9218 21.0832C46.4474 19.3219 45.8094 17.1396 45.9697 14.4068C46.0142 13.6511 46.0017 13.5866 45.7608 13.3268C45.4255 12.9653 44.8294 12.9411 44.522 13.2765C43.827 14.0348 42.8767 16.2879 42.4548 18.1779C41.7874 21.1674 41.8531 23.7689 42.6613 26.3596C43.0266 27.5306 43.9268 29.3253 44.594 30.2132C45.3582 31.2302 47.0628 32.8782 47.9805 33.4873C49.0229 34.1793 50.6026 34.9836 51.6235 35.342C53.2234 35.904 53.9193 35.9997 56.4039 36C58.9399 36.0003 59.7768 35.8737 61.7145 35.1967C63.7812 34.4745 65.1867 33.5738 66.6643 32.0245C69.8391 28.6959 70.8551 23.7409 69.2467 19.4302C68.3799 17.1071 67.084 15.5117 63.8599 12.7986C60.2835 9.789 59.1561 8.20422 58.6932 5.53558C58.553 4.72732 58.6391 2.43404 58.8443 1.50883C58.9447 1.05662 58.9577 0.784955 58.8887 0.586129C58.725 0.114834 58.184 -0.123577 57.7049 0.0643985ZM57.576 16.6426C57.7716 16.9384 58.68 17.9809 59.5948 18.9593C61.5209 21.0196 61.7086 21.2563 62.139 22.1686C62.4166 22.7565 62.4633 22.9743 62.4929 23.816C62.5356 25.031 62.3972 25.7096 61.9055 26.6957C60.8245 28.864 58.8715 29.9231 56.5213 29.6155C55.483 29.4795 54.763 29.1999 53.7173 28.5265C53.2683 28.2374 52.901 27.9887 52.901 27.9738C52.901 27.9588 53.1825 27.8456 53.5265 27.722C54.76 27.279 55.5418 26.6878 56.2199 25.6854C57.1888 24.2533 57.3194 23.136 56.7901 20.8109C56.3527 18.8901 56.2904 17.2542 56.6027 15.8972L56.8254 14.9299L57.023 15.5174C57.1315 15.8405 57.3804 16.3468 57.576 16.6426Z" fill="#FF872C"/>
</svg>
